<?xml version="1.0"?>
<svg xmlns="http://www.w3.org/2000/svg" xmlns:xlink="http://www.w3.org/1999/xlink" version="1.1" id="Capa_1" x="0px" y="0px" viewBox="0 0 511.996 511.996" style="enable-background:new 0 0 511.996 511.996;" xml:space="preserve" width="512px" height="512px" class=""><g><g>
	<g>
		<path d="M381.045,207.815l-76.877-76.877c-26.564-26.547-69.777-26.547-96.333,0l-76.877,76.877    c-12.868,12.868-19.951,29.969-19.951,48.171s7.083,35.302,19.951,48.171l76.877,76.877c13.278,13.278,30.72,19.917,48.162,19.917    c17.442,0,34.884-6.639,48.162-19.908l76.877-76.877c12.868-12.868,19.951-29.969,19.951-48.171S393.905,220.692,381.045,207.815z     M368.962,292.09l-76.877,76.877c-19.9,19.9-52.284,19.9-72.192,0l-76.877-76.877c-9.643-9.634-14.95-22.46-14.95-36.096    c0-13.636,5.308-26.453,14.95-36.096l76.877-76.877c19.9-19.9,52.284-19.908,72.192,0l76.877,76.877    c9.643,9.634,14.95,22.46,14.95,36.096C383.912,269.63,378.604,282.447,368.962,292.09z" data-original="#000000" class="active-path" data-old_color="#000000" fill="#374957"/>
	</g>
</g><g>
	<g>
		<path d="M302.419,175.243l-23.117-23.117c-12.382-12.382-34.219-12.382-46.601,0c-3.337,3.337-3.328,8.73,0,12.066    s8.73,3.337,12.066,0c5.922-5.922,16.521-5.939,22.46,0l23.117,23.117c1.664,1.664,3.849,2.5,6.033,2.5    c2.185,0,4.369-0.836,6.042-2.5C305.755,183.973,305.755,178.58,302.419,175.243z" data-original="#000000" class="active-path" data-old_color="#000000" fill="#374957"/>
	</g>
</g><g>
	<g>
		<path d="M221.736,175.141c-3.337-3.337-8.738-3.337-12.066,0l-34.628,34.637c-3.337,3.336-3.337,8.73,0,12.066    c1.664,1.664,3.849,2.5,6.033,2.5c2.185,0,4.369-0.836,6.033-2.5l34.628-34.637C225.073,183.87,225.073,178.477,221.736,175.141z" data-original="#000000" class="active-path" data-old_color="#000000" fill="#374957"/>
	</g>
</g><g>
	<g>
		<path d="M279.294,347.796c-3.328-3.337-8.73-3.337-12.066,0c-5.922,5.931-16.521,5.931-22.46,0l-23.023-23.014    c-3.328-3.337-8.73-3.337-12.066,0c-3.337,3.337-3.337,8.73,0,12.066l23.023,23.014c6.187,6.195,14.464,9.6,23.296,9.6    c8.832,0,17.109-3.413,23.296-9.6C282.63,356.525,282.621,351.132,279.294,347.796z" data-original="#000000" class="active-path" data-old_color="#000000" fill="#374957"/>
	</g>
</g><g>
	<g>
		<path d="M336.842,290.238c-3.328-3.337-8.73-3.337-12.066,0l-34.526,34.534c-3.337,3.337-3.337,8.73,0,12.066    c1.664,1.664,3.849,2.5,6.033,2.5c2.185,0,4.369-0.828,6.033-2.5l34.526-34.534C340.179,298.968,340.17,293.575,336.842,290.238z" data-original="#000000" class="active-path" data-old_color="#000000" fill="#374957"/>
	</g>
</g><g>
	<g>
		<path d="M511.801,156.427c-0.657-3.191-3.089-5.726-6.246-6.537c-1.57-0.401-38.511-10.24-33.929-42.317    c0.401-2.842-0.777-5.658-2.918-7.56c-2.142-1.903-5.24-2.56-8.004-1.818c-0.538,0.162-13.329,3.328-31.778-15.13    c-18.441-18.441-15.275-31.241-15.198-31.548c0.939-2.807,0.35-5.897-1.544-8.166c-1.894-2.278-4.821-3.43-7.757-2.987    c-32.026,4.618-41.916-32.349-42.309-33.902c-0.794-3.166-3.328-5.606-6.519-6.281c-3.191-0.666-6.494,0.538-8.499,3.106    c-41.771,53.709-36.548,151.253-36.309,155.375c0.119,2.091,1.007,4.053,2.483,5.53l34.526,34.526    c1.476,1.476,3.448,2.355,5.53,2.483c0.879,0.051,6.016,0.333,14.08,0.333c29.705,0,99.046-3.78,141.286-36.634    C511.272,162.904,512.467,159.619,511.801,156.427z M357.502,184.288l-29.807-29.807c-0.469-15.334-0.956-82.697,24.26-127.65    c7.919,14.737,22.34,30.012,44.646,30.959c0.845,8.969,5.188,22.263,20.258,37.333c15.07,15.078,28.365,19.422,37.333,20.267    c0.956,22.306,16.222,36.727,30.959,44.638C440.241,185.201,372.836,184.724,357.502,184.288z" data-original="#000000" class="active-path" data-old_color="#000000" fill="#374957"/>
	</g>
</g><g>
	<g>
		<path d="M370.293,93.664c-3.831-2.748-9.156-1.86-11.895,1.98c-1.237,1.732-30.362,42.94-30.362,79.778    c0,4.719,3.823,8.533,8.533,8.533c4.71,0,8.533-3.814,8.525-8.525c0-31.343,26.914-69.478,27.187-69.862    C375.02,101.72,374.124,96.395,370.293,93.664z" data-original="#000000" class="active-path" data-old_color="#000000" fill="#374957"/>
	</g>
</g><g>
	<g>
		<path d="M418.327,141.682c-2.739-3.84-8.073-4.727-11.904-1.98c-0.375,0.273-38.426,27.187-69.854,27.187    c-4.71,0-8.533,3.814-8.533,8.533c0,4.719,3.823,8.533,8.533,8.533c36.838,0,78.037-29.124,79.778-30.37    C420.179,150.846,421.066,145.513,418.327,141.682z" data-original="#000000" class="active-path" data-old_color="#000000" fill="#374957"/>
	</g>
</g><g>
	<g>
		<path d="M201.214,353.325c-0.119-2.091-1.007-4.053-2.483-5.53l-34.526-34.526c-1.476-1.476-3.447-2.355-5.53-2.483    c-4.13-0.23-101.658-5.47-155.375,36.309c-2.577,1.997-3.772,5.282-3.106,8.474c0.657,3.191,3.089,5.726,6.246,6.537    c1.57,0.401,38.511,10.24,33.929,42.317c-0.401,2.842,0.777,5.658,2.918,7.561c2.15,1.903,5.24,2.56,8.004,1.818    c0.538-0.154,13.329-3.319,31.778,15.13c18.441,18.441,15.275,31.241,15.198,31.548c-0.939,2.807-0.341,5.897,1.545,8.166    c1.886,2.27,4.804,3.388,7.757,2.987c32.077-4.497,41.916,32.35,42.308,33.903c0.794,3.166,3.328,5.606,6.519,6.281    c0.589,0.12,1.178,0.179,1.766,0.179c2.594,0,5.094-1.195,6.741-3.294C206.675,454.991,201.452,357.447,201.214,353.325z     M160.04,485.148c-7.919-14.737-22.34-30.012-44.646-30.959c-0.845-8.969-5.188-22.263-20.258-37.333    c-15.07-15.078-28.365-19.422-37.333-20.267c-0.956-22.306-16.222-36.727-30.959-44.638c44.911-25.173,112.29-24.704,127.65-24.26    l29.807,29.807C184.77,372.832,185.256,440.195,160.04,485.148z" data-original="#000000" class="active-path" data-old_color="#000000" fill="#374957"/>
	</g>
</g><g>
	<g>
		<path d="M175.426,328.015c-4.71,0-8.533,3.814-8.533,8.533c0,31.343-26.914,69.478-27.187,69.862    c-2.739,3.849-1.843,9.173,1.988,11.904c1.502,1.075,3.234,1.596,4.949,1.596c2.662,0,5.282-1.246,6.955-3.584    c1.237-1.732,30.362-42.94,30.362-79.778C183.959,331.83,180.136,328.015,175.426,328.015z" data-original="#000000" class="active-path" data-old_color="#000000" fill="#374957"/>
	</g>
</g><g>
	<g>
		<path d="M175.426,328.015c-36.847,0-78.046,29.124-79.778,30.37c-3.831,2.739-4.719,8.073-1.98,11.904    c1.664,2.33,4.284,3.576,6.946,3.576c1.715,0,3.456-0.512,4.958-1.596c0.375-0.273,38.426-27.187,69.854-27.187    c4.71,0,8.533-3.814,8.533-8.533S180.136,328.015,175.426,328.015z" data-original="#000000" class="active-path" data-old_color="#000000" fill="#374957"/>
	</g>
</g></g> </svg>
